<svg version="1.2" xmlns="http://www.w3.org/2000/svg" viewBox="0 0 21 21" width="21" height="21"><defs><clipPath clipPathUnits="userSpaceOnUse" id="cp1"><path d="m-86-431h1538v1206h-1538z"/></clipPath></defs><style>.a{fill:#f55661}</style><g clip-path="url(#cp1)"><path fill-rule="evenodd" class="a" d="m1 21v-0.8h20v0.8zm17.9-1.7h-2.5c-0.4 0-0.8-0.3-0.8-0.8v-11.3c0-0.4 0.4-0.8 0.8-0.8h2.5c0.5 0 0.8 0.4 0.8 0.8v11.3c0 0.5-0.3 0.8-0.8 0.8zm0-12.1h-2.5v1.3h2.5zm0 2.1h-2.5v9.2h2.5zm-6.7 2c0.5 0 0.9 0.4 0.9 0.9v6.2c0 0.5-0.4 0.8-0.9 0.8h-2.5c-0.4 0-0.8-0.3-0.8-0.8v-6.2c0-0.5 0.4-0.9 0.8-0.9zm-2.5 7.1h2.5v-4.2h-2.5zm0-5h2.5v-1.2h-2.5zm-4.1-3.3c0.4 0 0.8 0.3 0.8 0.8v7.5c0 0.5-0.4 0.8-0.8 0.8h-2.5c-0.5 0-0.9-0.3-0.9-0.8v-7.5c0-0.5 0.4-0.8 0.9-0.8zm-2.5 8.3h2.5v-5.4h-2.5zm0-6.3h2.5v-1.2h-2.5zm14.6-9.8l-5.7 5.6c-0.3 0.3-0.6 0.4-1 0.4-0.4 0-0.7-0.1-1-0.4l-3.2-3.1q-0.1-0.2-0.4-0.2-0.2 0-0.4 0.2l-4 3.9-0.6-0.5 4-4c0.3-0.3 0.6-0.4 1-0.4 0.4 0 0.8 0.1 1 0.4l3.2 3.1q0.2 0.2 0.4 0.2 0.2 0 0.4-0.2l5.7-5.6h-1.9v-0.9h2.9c0.2 0 0.4 0.2 0.4 0.4v3h-0.8z"/></g></svg>