<svg version="1.2" xmlns="http://www.w3.org/2000/svg" viewBox="0 0 21 21" width="21" height="21"><defs><clipPath clipPathUnits="userSpaceOnUse" id="cp1"><path d="m-85-384h1538v1206h-1538z"/></clipPath></defs><style>.a{fill:#4e545e}</style><g clip-path="url(#cp1)"><path class="a" d="m0.6 11.1q-0.2 0-0.4-0.2-0.2-0.2-0.2-0.4c0-0.4 0.3-0.7 0.6-0.7h2.1c0.6 0 1.1 0.3 1.5 0.7 0.3 0.5 0.6 1.1 0.6 1.6q0.1 0.6 0.4 1 0.2 0.2 0.4 0.3h0.1l0.4-0.2q0.4-0.4 0.4-0.9l0.8-3.9c0.1-0.6 0.3-1.1 0.7-1.5 0.4-0.4 0.8-0.6 1.3-0.6 0.6 0 1.1 0.2 1.4 0.6 0.4 0.5 0.7 1.1 0.8 1.7l1.3 9.1q0 0.6 0.4 1 0.2 0.2 0.4 0.3 0.3 0 0.5-0.3 0.3-0.4 0.4-1l0.8-5.6q0.1-0.8 0.7-1.6c0.3-0.4 0.8-0.7 1.4-0.7h2q0.2 0 0.4 0.2c0.2 0.2 0.3 0.5 0.2 0.7-0.1 0.2-0.4 0.4-0.6 0.4h-2q-0.3 0-0.5 0.3-0.3 0.4-0.4 0.9l-0.8 5.6c0 0.6-0.3 1.2-0.7 1.7-0.3 0.4-0.8 0.7-1.4 0.7-0.5 0-1-0.3-1.4-0.7-0.4-0.5-0.6-1.1-0.7-1.7l-1.3-9.1q-0.1-0.6-0.4-1-0.2-0.2-0.5-0.3l-0.3 0.2h-0.1q-0.3 0.4-0.4 0.9l-0.7 3.9c-0.1 0.6-0.4 1.1-0.8 1.6-0.3 0.3-0.8 0.5-1.3 0.6-0.5-0.1-1-0.3-1.4-0.7-0.4-0.5-0.6-1.1-0.7-1.7q-0.1-0.5-0.4-0.9-0.2-0.3-0.5-0.3h-2.1zm20.2-1.9q0.2 0.2 0.2 0.5 0 0.2-0.2 0.4-0.2 0.2-0.4 0.2h-2.2c-0.5 0-1.1-0.3-1.4-0.7-0.4-0.5-0.6-1-0.7-1.6q-0.1-0.6-0.4-1-0.2-0.2-0.4-0.2h-0.1l-0.4 0.2q-0.3 0.4-0.4 0.9l-0.8 3.8c-0.1 0.6-0.3 1.1-0.7 1.5-0.4 0.4-0.9 0.6-1.4 0.6-0.5 0-1-0.2-1.4-0.6-0.4-0.5-0.6-1.1-0.7-1.7l-1.3-9q-0.1-0.6-0.4-1-0.2-0.2-0.5-0.2-0.3 0-0.5 0.2-0.3 0.4-0.4 1l-0.8 5.5c-0.1 0.6-0.3 1.1-0.6 1.6-0.4 0.4-0.9 0.7-1.5 0.7h-2q-0.3 0-0.5-0.2-0.1-0.2-0.1-0.4c0-0.4 0.2-0.7 0.6-0.7h2q0.3 0 0.5-0.2 0.3-0.5 0.4-1l0.8-5.5c0.1-0.6 0.3-1.2 0.7-1.7 0.4-0.4 0.9-0.6 1.4-0.6 0.6 0 1.1 0.2 1.4 0.6 0.4 0.5 0.7 1.1 0.7 1.7l1.4 9q0 0.6 0.4 1 0.2 0.2 0.4 0.2h0.1l0.3-0.1h0.1q0.3-0.4 0.4-0.9l0.7-3.8c0.1-0.6 0.4-1.2 0.8-1.6 0.3-0.4 0.8-0.6 1.3-0.6 0.6 0 1.1 0.3 1.4 0.7 0.4 0.4 0.7 1 0.8 1.6q0 0.6 0.4 1 0.1 0.2 0.4 0.2h2.2q0.2 0 0.4 0.2z"/></g></svg>