<svg version="1.2" xmlns="http://www.w3.org/2000/svg" viewBox="0 0 20 18" width="20" height="18"><defs><clipPath clipPathUnits="userSpaceOnUse" id="cp1"><path d="m-86-66h1538v1206h-1538z"/></clipPath></defs><style>.a{fill:#f55661}</style><g clip-path="url(#cp1)"><path fill-rule="evenodd" class="a" d="m15 14.1h-10.6v-1l1.3-1.3v-2.6c0-1.9 1.3-3.6 3.2-4v-0.4c0-0.3 0.1-0.6 0.4-0.7 0.3-0.2 0.6-0.2 0.9 0 0.2 0.1 0.4 0.4 0.4 0.7v0.4c1.8 0.4 3.2 2.1 3.1 4v2.6l1.3 1.3v0.9zm-5.3 2.3q0 0 0 0 0 0 0 0zm0 0c0.6 0 1.1-0.5 1.2-1.2h-2.3c0 0.7 0.5 1.2 1.1 1.2zm6.2-3.8q0.2 0.2 0.2 0.4v1.7c0 0.3-0.2 0.5-0.5 0.5h-3.6c0 1.3-1 2.3-2.3 2.3-1.2 0-2.2-1-2.2-2.3h-3.6c-0.3 0-0.6-0.2-0.6-0.5v-1.7q0-0.2 0.2-0.4l1.1-1.1v-2.2c0-2.1 1.3-4 3.3-4.8 0.1-0.9 0.9-1.5 1.8-1.5 0.9 0 1.7 0.6 1.9 1.5 1.9 0.8 3.2 2.7 3.2 4.8v2.2l1.1 1.1zm-2.4-10.3c2.2 0.9 3.6 3.1 3.7 5.5q0 0-0.1 0.1 0 0.1-0.1 0.1h-0.7c-0.1 0-0.2-0.1-0.2-0.2-0.1-2-1.3-3.7-3-4.5-0.2 0-0.2-0.2-0.2-0.3l0.3-0.6c0.1-0.1 0.2-0.2 0.3-0.1zm0.6-2.1q0-0.1 0.1-0.1 0.1 0 0.2 0c3 1.4 5 4.3 5.1 7.6q0 0.1 0 0.2-0.1 0.1-0.2 0.1h-0.7c-0.1 0-0.2-0.1-0.2-0.2-0.1-2.9-1.9-5.5-4.5-6.6q-0.1-0.1-0.1-0.1 0-0.1 0-0.2zm-7.5 2.7c0.1 0.2 0 0.3-0.1 0.3-1.8 0.9-2.9 2.6-3 4.5 0 0.1-0.1 0.2-0.2 0.2h-0.7q-0.1 0-0.2 0-0.1-0.1-0.1-0.2c0.1-2.4 1.6-4.5 3.7-5.5 0.2-0.1 0.3 0 0.4 0.1zm-0.9-2.1q0 0.1 0 0.2-0.1 0-0.1 0.1c-2.7 1.1-4.4 3.7-4.5 6.6 0 0.1-0.1 0.2-0.2 0.2h-0.7q-0.1 0-0.2-0.1 0-0.1 0-0.2c0.1-3.3 2.1-6.2 5.1-7.6q0.1 0 0.2 0 0.1 0 0.1 0.1z"/></g></svg>